<mxfile host="app.diagrams.net" modified="2024-02-21T19:39:28.672Z" agent="Mozilla/5.0 (Windows NT 10.0; Win64; x64) AppleWebKit/537.36 (KHTML, like Gecko) Chrome/121.0.0.0 Safari/537.36" etag="Hve0KCwj2GcoEThzlwSW" version="23.1.5" type="device">
  <diagram id="kB20T5jsoppxgYf0WiQO" name="Page-1">
    <mxGraphModel dx="880" dy="468" grid="1" gridSize="10" guides="1" tooltips="1" connect="1" arrows="1" fold="1" page="1" pageScale="1" pageWidth="850" pageHeight="1100" math="0" shadow="0">
      <root>
        <mxCell id="0" />
        <mxCell id="1" parent="0" />
        <mxCell id="MLl364OC8HHZne96wdhv-1" value="" style="swimlane;horizontal=0;whiteSpace=wrap;html=1;startSize=70;strokeColor=#525252;" parent="1" vertex="1">
          <mxGeometry x="130" y="140" width="940" height="500" as="geometry" />
        </mxCell>
        <mxCell id="MLl364OC8HHZne96wdhv-2" value="Check Current Status" style="shape=ext;double=1;rounded=1;whiteSpace=wrap;html=1;" parent="MLl364OC8HHZne96wdhv-1" vertex="1">
          <mxGeometry x="82" y="100" width="138" height="20" as="geometry" />
        </mxCell>
        <mxCell id="MLl364OC8HHZne96wdhv-5" value="Search Criteria" style="rounded=1;whiteSpace=wrap;html=1;" parent="MLl364OC8HHZne96wdhv-1" vertex="1">
          <mxGeometry x="630" y="100" width="90" height="20" as="geometry" />
        </mxCell>
        <mxCell id="MLl364OC8HHZne96wdhv-6" value="&lt;i&gt;Search here&lt;/i&gt;" style="rounded=0;whiteSpace=wrap;html=1;" parent="MLl364OC8HHZne96wdhv-1" vertex="1">
          <mxGeometry x="720" y="100" width="120" height="20" as="geometry" />
        </mxCell>
        <mxCell id="MLl364OC8HHZne96wdhv-7" value="" style="sketch=0;pointerEvents=1;shadow=0;dashed=0;html=1;strokeColor=none;fillColor=#505050;labelPosition=center;verticalLabelPosition=bottom;verticalAlign=top;outlineConnect=0;align=center;shape=mxgraph.office.devices.printer;" parent="MLl364OC8HHZne96wdhv-1" vertex="1">
          <mxGeometry x="850" y="100" width="20" height="20" as="geometry" />
        </mxCell>
        <mxCell id="MLl364OC8HHZne96wdhv-8" value="" style="shape=image;html=1;verticalAlign=top;verticalLabelPosition=bottom;labelBackgroundColor=#ffffff;imageAspect=0;aspect=fixed;image=https://cdn3.iconfinder.com/data/icons/brands-applications/512/Excel_D-128.png" parent="MLl364OC8HHZne96wdhv-1" vertex="1">
          <mxGeometry x="880" y="100" width="24" height="24" as="geometry" />
        </mxCell>
        <mxCell id="MLl364OC8HHZne96wdhv-10" value="" style="shape=image;html=1;verticalAlign=top;verticalLabelPosition=bottom;labelBackgroundColor=#ffffff;imageAspect=0;aspect=fixed;image=https://cdn4.iconfinder.com/data/icons/essential-3/32/372-Home-128.png" parent="MLl364OC8HHZne96wdhv-1" vertex="1">
          <mxGeometry x="10" y="20" width="18" height="18" as="geometry" />
        </mxCell>
        <mxCell id="MLl364OC8HHZne96wdhv-11" value="" style="html=1;verticalLabelPosition=bottom;align=center;labelBackgroundColor=#ffffff;verticalAlign=top;strokeWidth=2;strokeColor=#0a0a0a;shadow=0;dashed=0;shape=mxgraph.ios7.icons.most_viewed;pointerEvents=1" parent="MLl364OC8HHZne96wdhv-1" vertex="1">
          <mxGeometry x="30" y="22.599999999999994" width="20" height="12.8" as="geometry" />
        </mxCell>
        <mxCell id="MLl364OC8HHZne96wdhv-12" value="Workorders" style="text;html=1;align=center;verticalAlign=middle;whiteSpace=wrap;rounded=0;" parent="MLl364OC8HHZne96wdhv-1" vertex="1">
          <mxGeometry y="70" width="70" height="30" as="geometry" />
        </mxCell>
        <mxCell id="MLl364OC8HHZne96wdhv-13" value="Users" style="text;html=1;align=center;verticalAlign=middle;whiteSpace=wrap;rounded=0;" parent="MLl364OC8HHZne96wdhv-1" vertex="1">
          <mxGeometry y="110" width="70" height="30" as="geometry" />
        </mxCell>
        <mxCell id="MLl364OC8HHZne96wdhv-14" value="Profile" style="text;html=1;align=center;verticalAlign=middle;whiteSpace=wrap;rounded=0;" parent="MLl364OC8HHZne96wdhv-1" vertex="1">
          <mxGeometry x="5" y="150" width="60" height="30" as="geometry" />
        </mxCell>
        <mxCell id="MLl364OC8HHZne96wdhv-15" value="&amp;nbsp;Work Order : WO0986245" style="text;html=1;align=center;verticalAlign=middle;whiteSpace=wrap;rounded=0;fontStyle=1;fontSize=15;" parent="MLl364OC8HHZne96wdhv-1" vertex="1">
          <mxGeometry x="50" y="8" width="240" height="30" as="geometry" />
        </mxCell>
        <mxCell id="MLl364OC8HHZne96wdhv-16" value="" style="swimlane;startSize=0;" parent="MLl364OC8HHZne96wdhv-1" vertex="1">
          <mxGeometry x="70" y="130" width="870" height="370" as="geometry" />
        </mxCell>
        <mxCell id="MLl364OC8HHZne96wdhv-17" value="" style="dashed=0;labelPosition=right;align=left;shape=mxgraph.gmdl.checkbox;strokeColor=#666666;fillColor=none;strokeWidth=2;aspect=fixed;sketch=0;html=1;" parent="MLl364OC8HHZne96wdhv-16" vertex="1">
          <mxGeometry x="10" y="61.85" width="10" height="10" as="geometry" />
        </mxCell>
        <mxCell id="MLl364OC8HHZne96wdhv-18" value="" style="dashed=0;labelPosition=right;align=left;shape=mxgraph.gmdl.checkbox;strokeColor=#666666;fillColor=none;strokeWidth=2;aspect=fixed;sketch=0;html=1;" parent="MLl364OC8HHZne96wdhv-16" vertex="1">
          <mxGeometry x="10" y="91.85" width="10" height="10" as="geometry" />
        </mxCell>
        <mxCell id="MLl364OC8HHZne96wdhv-19" value="" style="dashed=0;labelPosition=right;align=left;shape=mxgraph.gmdl.checkbox;strokeColor=#666666;fillColor=none;strokeWidth=2;aspect=fixed;sketch=0;html=1;" parent="MLl364OC8HHZne96wdhv-16" vertex="1">
          <mxGeometry x="10" y="121.85" width="10" height="10" as="geometry" />
        </mxCell>
        <mxCell id="MLl364OC8HHZne96wdhv-20" value="" style="dashed=0;labelPosition=right;align=left;shape=mxgraph.gmdl.checkbox;strokeColor=#666666;fillColor=none;strokeWidth=2;aspect=fixed;sketch=0;html=1;" parent="MLl364OC8HHZne96wdhv-16" vertex="1">
          <mxGeometry x="10" y="151.85" width="10" height="10" as="geometry" />
        </mxCell>
        <mxCell id="MLl364OC8HHZne96wdhv-21" value="" style="dashed=0;labelPosition=right;align=left;shape=mxgraph.gmdl.checkbox;strokeColor=#666666;fillColor=none;strokeWidth=2;aspect=fixed;sketch=0;html=1;" parent="MLl364OC8HHZne96wdhv-16" vertex="1">
          <mxGeometry x="10" y="181.85" width="10" height="10" as="geometry" />
        </mxCell>
        <mxCell id="MLl364OC8HHZne96wdhv-27" value="&lt;font style=&quot;font-size: 11px;&quot;&gt;Manufacturer ID&lt;/font&gt;" style="text;html=1;align=center;verticalAlign=middle;whiteSpace=wrap;rounded=0;" parent="MLl364OC8HHZne96wdhv-16" vertex="1">
          <mxGeometry x="40" y="10" width="90" height="30" as="geometry" />
        </mxCell>
        <mxCell id="MLl364OC8HHZne96wdhv-28" value="Name" style="text;html=1;align=center;verticalAlign=middle;whiteSpace=wrap;rounded=0;fontSize=11;" parent="MLl364OC8HHZne96wdhv-16" vertex="1">
          <mxGeometry x="150" y="10" width="60" height="30" as="geometry" />
        </mxCell>
        <mxCell id="MLl364OC8HHZne96wdhv-31" value="Order Status" style="text;html=1;align=center;verticalAlign=middle;whiteSpace=wrap;rounded=0;" parent="MLl364OC8HHZne96wdhv-16" vertex="1">
          <mxGeometry x="580" y="10" width="80" height="30" as="geometry" />
        </mxCell>
        <mxCell id="MLl364OC8HHZne96wdhv-33" value="" style="endArrow=none;html=1;rounded=0;strokeColor=#525252;entryX=0.194;entryY=0.003;entryDx=0;entryDy=0;entryPerimeter=0;" parent="MLl364OC8HHZne96wdhv-16" edge="1">
          <mxGeometry width="50" height="50" relative="1" as="geometry">
            <mxPoint x="140" y="340" as="sourcePoint" />
            <mxPoint x="139.99999999999994" y="1.354472090042691e-14" as="targetPoint" />
          </mxGeometry>
        </mxCell>
        <mxCell id="MLl364OC8HHZne96wdhv-35" value="" style="endArrow=none;html=1;rounded=0;strokeColor=#525252;entryX=0.485;entryY=0.005;entryDx=0;entryDy=0;entryPerimeter=0;" parent="MLl364OC8HHZne96wdhv-16" edge="1">
          <mxGeometry width="50" height="50" relative="1" as="geometry">
            <mxPoint x="570" y="340" as="sourcePoint" />
            <mxPoint x="570" y="2.2648549702353193e-14" as="targetPoint" />
          </mxGeometry>
        </mxCell>
        <mxCell id="MLl364OC8HHZne96wdhv-36" value="" style="endArrow=none;html=1;rounded=0;strokeColor=#525252;entryX=0.044;entryY=0.003;entryDx=0;entryDy=0;entryPerimeter=0;" parent="MLl364OC8HHZne96wdhv-16" edge="1">
          <mxGeometry width="50" height="50" relative="1" as="geometry">
            <mxPoint x="671" y="340" as="sourcePoint" />
            <mxPoint x="671" y="-2" as="targetPoint" />
          </mxGeometry>
        </mxCell>
        <mxCell id="MLl364OC8HHZne96wdhv-38" value="&lt;a style=&quot;box-sizing: border-box; background-color: rgb(255, 255, 255); color: rgb(0, 112, 187); text-decoration-line: none; font-family: Arial, Helvetica, sans-serif; text-align: start; font-size: 10px;&quot; class=&quot;text-nowrap&quot; href=&quot;https://www.mouser.in/ProductDetail/Lumileds/L128-3090HA35000K1?qs=sGAEpiMZZMusoohG2hS%252B1%2F8Ds1DTNiHJNPmj0mFYsSYo31Wc3TG1wQ%3D%3D&quot; id=&quot;lnkMfrPartNumber_21&quot;&gt;L128-3090HA35000K1&lt;/a&gt;" style="text;html=1;align=center;verticalAlign=middle;whiteSpace=wrap;rounded=0;fontSize=10;" parent="MLl364OC8HHZne96wdhv-16" vertex="1">
          <mxGeometry x="30" y="56.85" width="100" height="20" as="geometry" />
        </mxCell>
        <mxCell id="MLl364OC8HHZne96wdhv-39" value="&lt;a style=&quot;box-sizing: border-box; background-color: rgb(245, 245, 245); color: rgb(0, 153, 255); outline: 0px; cursor: pointer; font-family: Arial, Helvetica, sans-serif; text-align: start; font-size: 10px;&quot; class=&quot;text-nowrap&quot; href=&quot;https://www.mouser.in/ProductDetail/Broadcom-Avago/ASCQDA30-B2231A2A305?qs=sGAEpiMZZMusoohG2hS%252B1%2F8Ds1DTNiHJBl6naddkVFkKRCjZl3pZow%3D%3D&quot; id=&quot;lnkMfrPartNumber_2&quot;&gt;ASCQDA30-B2231A2A305&lt;/a&gt;" style="text;html=1;align=center;verticalAlign=middle;whiteSpace=wrap;rounded=0;fontSize=10;" parent="MLl364OC8HHZne96wdhv-16" vertex="1">
          <mxGeometry x="50" y="86.85" width="60" height="20" as="geometry" />
        </mxCell>
        <mxCell id="MLl364OC8HHZne96wdhv-40" value="&lt;a style=&quot;box-sizing: border-box; background-color: rgb(255, 255, 255); color: rgb(0, 112, 187); text-decoration-line: none; font-family: Arial, Helvetica, sans-serif; text-align: start;&quot; class=&quot;text-nowrap&quot; href=&quot;https://www.mouser.in/ProductDetail/Broadcom-Avago/ASCQFA30-B2231A2A305?qs=sGAEpiMZZMusoohG2hS%252B1%2F8Ds1DTNiHJ6oXKAb%2FkXXoGa%2FCWdTKPag%3D%3D&quot; id=&quot;lnkMfrPartNumber_3&quot;&gt;&lt;font style=&quot;font-size: 10px;&quot;&gt;ASCQFA30-B2231A2A305&lt;/font&gt;&lt;/a&gt;" style="text;html=1;align=center;verticalAlign=middle;whiteSpace=wrap;rounded=0;" parent="MLl364OC8HHZne96wdhv-16" vertex="1">
          <mxGeometry x="50" y="116.85" width="60" height="20" as="geometry" />
        </mxCell>
        <mxCell id="MLl364OC8HHZne96wdhv-41" value="&lt;a style=&quot;box-sizing: border-box; background-color: rgb(245, 245, 245); color: rgb(0, 112, 187); text-decoration-line: none; font-family: Arial, Helvetica, sans-serif; text-align: start; font-size: 10px;&quot; class=&quot;text-nowrap&quot; href=&quot;https://www.mouser.in/ProductDetail/Broadcom-Avago/ASCQDG30-N1222G2G302?qs=sGAEpiMZZMusoohG2hS%252B1%2F8Ds1DTNiHJ7ou0uMA9q6edJF8jBm8trQ%3D%3D&quot; id=&quot;lnkMfrPartNumber_6&quot;&gt;ASCQDG30-N1222G2G302&lt;/a&gt;" style="text;html=1;align=center;verticalAlign=middle;whiteSpace=wrap;rounded=0;fontSize=10;" parent="MLl364OC8HHZne96wdhv-16" vertex="1">
          <mxGeometry x="50" y="146.85" width="60" height="20" as="geometry" />
        </mxCell>
        <mxCell id="MLl364OC8HHZne96wdhv-42" value="&lt;a style=&quot;box-sizing: border-box; background-color: rgb(255, 255, 255); color: rgb(0, 112, 187); text-decoration-line: none; font-family: Arial, Helvetica, sans-serif; text-align: start; font-size: 10px;&quot; class=&quot;text-nowrap&quot; href=&quot;https://www.mouser.in/ProductDetail/Cree-LED/XQEAWT-H0-0000-P00000E51?qs=sGAEpiMZZMusoohG2hS%252B1%2F8Ds1DTNiHJWv3I8Xlz9IFTpXqCYTfRnw%3D%3D&quot; id=&quot;lnkMfrPartNumber_11&quot;&gt;XQEAWT-H0-0000-P00000E51&lt;/a&gt;" style="text;html=1;align=center;verticalAlign=middle;whiteSpace=wrap;rounded=0;fontSize=10;" parent="MLl364OC8HHZne96wdhv-16" vertex="1">
          <mxGeometry x="50" y="176.85" width="60" height="20" as="geometry" />
        </mxCell>
        <mxCell id="MLl364OC8HHZne96wdhv-43" value="LED" style="text;html=1;align=center;verticalAlign=middle;whiteSpace=wrap;rounded=0;" parent="MLl364OC8HHZne96wdhv-16" vertex="1">
          <mxGeometry x="155" y="57.50000000000001" width="50" height="15" as="geometry" />
        </mxCell>
        <mxCell id="MLl364OC8HHZne96wdhv-44" value="White LED" style="text;html=1;align=center;verticalAlign=middle;whiteSpace=wrap;rounded=0;" parent="MLl364OC8HHZne96wdhv-16" vertex="1">
          <mxGeometry x="140" y="87.5" width="65" height="15" as="geometry" />
        </mxCell>
        <mxCell id="MLl364OC8HHZne96wdhv-45" value="Red LED" style="text;html=1;align=center;verticalAlign=middle;whiteSpace=wrap;rounded=0;" parent="MLl364OC8HHZne96wdhv-16" vertex="1">
          <mxGeometry x="150" y="117.5" width="55" height="15" as="geometry" />
        </mxCell>
        <mxCell id="MLl364OC8HHZne96wdhv-46" value="Transmitters" style="text;html=1;align=center;verticalAlign=middle;whiteSpace=wrap;rounded=0;" parent="MLl364OC8HHZne96wdhv-16" vertex="1">
          <mxGeometry x="155" y="147.5" width="50" height="15" as="geometry" />
        </mxCell>
        <mxCell id="MLl364OC8HHZne96wdhv-47" value="Blehh" style="text;html=1;align=center;verticalAlign=middle;whiteSpace=wrap;rounded=0;" parent="MLl364OC8HHZne96wdhv-16" vertex="1">
          <mxGeometry x="155" y="177.5" width="50" height="15" as="geometry" />
        </mxCell>
        <mxCell id="MLl364OC8HHZne96wdhv-48" value="Completed&amp;nbsp;" style="rounded=1;whiteSpace=wrap;html=1;fillColor=#d5e8d4;strokeColor=#82b366;" parent="MLl364OC8HHZne96wdhv-16" vertex="1">
          <mxGeometry x="580" y="56.85" width="80" height="20" as="geometry" />
        </mxCell>
        <mxCell id="MLl364OC8HHZne96wdhv-49" value="Completed" style="rounded=1;whiteSpace=wrap;html=1;fillColor=#d5e8d4;strokeColor=#82b366;" parent="MLl364OC8HHZne96wdhv-16" vertex="1">
          <mxGeometry x="580" y="116.85" width="80" height="20" as="geometry" />
        </mxCell>
        <mxCell id="MLl364OC8HHZne96wdhv-50" value="Pending" style="rounded=1;whiteSpace=wrap;html=1;fillColor=#fff2cc;strokeColor=#d6b656;" parent="MLl364OC8HHZne96wdhv-16" vertex="1">
          <mxGeometry x="580" y="86.85" width="80" height="20" as="geometry" />
        </mxCell>
        <mxCell id="MLl364OC8HHZne96wdhv-34" value="" style="endArrow=none;html=1;rounded=0;strokeColor=#525252;entryX=0.044;entryY=0.003;entryDx=0;entryDy=0;entryPerimeter=0;" parent="MLl364OC8HHZne96wdhv-16" edge="1">
          <mxGeometry width="50" height="50" relative="1" as="geometry">
            <mxPoint x="301" y="340" as="sourcePoint" />
            <mxPoint x="301" as="targetPoint" />
          </mxGeometry>
        </mxCell>
        <mxCell id="798uyz5F8lWf0I3kEfGu-3" value="" style="endArrow=none;html=1;rounded=0;exitX=0.215;exitY=1.067;exitDx=0;exitDy=0;exitPerimeter=0;" parent="MLl364OC8HHZne96wdhv-16" edge="1">
          <mxGeometry width="50" height="50" relative="1" as="geometry">
            <mxPoint x="490" y="40" as="sourcePoint" />
            <mxPoint x="490" y="340" as="targetPoint" />
            <Array as="points">
              <mxPoint x="490" />
              <mxPoint x="490" y="48" />
            </Array>
          </mxGeometry>
        </mxCell>
        <mxCell id="798uyz5F8lWf0I3kEfGu-4" value="Digikey" style="text;html=1;align=center;verticalAlign=middle;whiteSpace=wrap;rounded=0;" parent="MLl364OC8HHZne96wdhv-16" vertex="1">
          <mxGeometry x="318" y="10" width="60" height="30" as="geometry" />
        </mxCell>
        <mxCell id="798uyz5F8lWf0I3kEfGu-5" value="Mouser" style="text;html=1;align=center;verticalAlign=middle;whiteSpace=wrap;rounded=0;" parent="MLl364OC8HHZne96wdhv-16" vertex="1">
          <mxGeometry x="405" y="9.999999999999998" width="60" height="30" as="geometry" />
        </mxCell>
        <mxCell id="798uyz5F8lWf0I3kEfGu-6" value="Amazon" style="text;html=1;align=center;verticalAlign=middle;whiteSpace=wrap;rounded=0;" parent="MLl364OC8HHZne96wdhv-16" vertex="1">
          <mxGeometry x="500" y="9.999999999999998" width="60" height="30" as="geometry" />
        </mxCell>
        <mxCell id="798uyz5F8lWf0I3kEfGu-2" value="" style="endArrow=none;html=1;rounded=0;exitX=0.448;exitY=0;exitDx=0;exitDy=0;exitPerimeter=0;" parent="MLl364OC8HHZne96wdhv-16" source="MLl364OC8HHZne96wdhv-16" edge="1">
          <mxGeometry width="50" height="50" relative="1" as="geometry">
            <mxPoint x="390" y="40" as="sourcePoint" />
            <mxPoint x="390" y="340" as="targetPoint" />
            <Array as="points" />
          </mxGeometry>
        </mxCell>
        <mxCell id="FCF7Dez4cNrbEFGlSfUY-1" value="" style="endArrow=none;html=1;rounded=0;strokeColor=#525252;entryX=0.044;entryY=0.003;entryDx=0;entryDy=0;entryPerimeter=0;" parent="MLl364OC8HHZne96wdhv-16" edge="1">
          <mxGeometry width="50" height="50" relative="1" as="geometry">
            <mxPoint x="231" y="340" as="sourcePoint" />
            <mxPoint x="231" y="-2" as="targetPoint" />
          </mxGeometry>
        </mxCell>
        <mxCell id="FCF7Dez4cNrbEFGlSfUY-3" value="96775" style="text;html=1;align=center;verticalAlign=middle;resizable=0;points=[];autosize=1;strokeColor=none;fillColor=none;" parent="MLl364OC8HHZne96wdhv-16" vertex="1">
          <mxGeometry x="700" y="56.84999999999998" width="60" height="30" as="geometry" />
        </mxCell>
        <mxCell id="FCF7Dez4cNrbEFGlSfUY-7" value="245" style="text;html=1;align=center;verticalAlign=middle;resizable=0;points=[];autosize=1;strokeColor=none;fillColor=none;" parent="MLl364OC8HHZne96wdhv-16" vertex="1">
          <mxGeometry x="710" y="178.7" width="40" height="30" as="geometry" />
        </mxCell>
        <mxCell id="FCF7Dez4cNrbEFGlSfUY-6" value="56678" style="text;html=1;align=center;verticalAlign=middle;resizable=0;points=[];autosize=1;strokeColor=none;fillColor=none;" parent="MLl364OC8HHZne96wdhv-16" vertex="1">
          <mxGeometry x="700" y="148.7" width="60" height="30" as="geometry" />
        </mxCell>
        <mxCell id="FCF7Dez4cNrbEFGlSfUY-5" value="944328" style="text;html=1;align=center;verticalAlign=middle;resizable=0;points=[];autosize=1;strokeColor=none;fillColor=none;" parent="MLl364OC8HHZne96wdhv-16" vertex="1">
          <mxGeometry x="700" y="118.69999999999999" width="60" height="30" as="geometry" />
        </mxCell>
        <mxCell id="FCF7Dez4cNrbEFGlSfUY-4" value="1344" style="text;html=1;align=center;verticalAlign=middle;resizable=0;points=[];autosize=1;strokeColor=none;fillColor=none;" parent="MLl364OC8HHZne96wdhv-16" vertex="1">
          <mxGeometry x="705" y="88.69999999999999" width="50" height="30" as="geometry" />
        </mxCell>
        <mxCell id="FCF7Dez4cNrbEFGlSfUY-9" value="54" style="text;html=1;align=center;verticalAlign=middle;resizable=0;points=[];autosize=1;strokeColor=none;fillColor=none;fontColor=#33aae6;labelBorderColor=none;" parent="MLl364OC8HHZne96wdhv-16" vertex="1">
          <mxGeometry x="328" y="51.85" width="40" height="30" as="geometry" />
        </mxCell>
        <mxCell id="FCF7Dez4cNrbEFGlSfUY-13" value="86" style="text;html=1;align=center;verticalAlign=middle;resizable=0;points=[];autosize=1;strokeColor=none;fillColor=none;fontColor=#33aae6;labelBorderColor=none;" parent="MLl364OC8HHZne96wdhv-16" vertex="1">
          <mxGeometry x="328" y="171.85" width="40" height="30" as="geometry" />
        </mxCell>
        <mxCell id="FCF7Dez4cNrbEFGlSfUY-12" value="1856" style="text;html=1;align=center;verticalAlign=middle;resizable=0;points=[];autosize=1;strokeColor=none;fillColor=none;fontColor=#33aae6;" parent="MLl364OC8HHZne96wdhv-16" vertex="1">
          <mxGeometry x="323" y="139.99999999999997" width="50" height="30" as="geometry" />
        </mxCell>
        <mxCell id="FCF7Dez4cNrbEFGlSfUY-11" value="19986" style="text;html=1;align=center;verticalAlign=middle;resizable=0;points=[];autosize=1;strokeColor=none;fillColor=none;fontColor=#33aae6;" parent="MLl364OC8HHZne96wdhv-16" vertex="1">
          <mxGeometry x="318" y="111.84999999999997" width="60" height="30" as="geometry" />
        </mxCell>
        <mxCell id="FCF7Dez4cNrbEFGlSfUY-10" value="67" style="text;html=1;align=center;verticalAlign=middle;resizable=0;points=[];autosize=1;strokeColor=none;fillColor=none;fontColor=#33aae6;" parent="MLl364OC8HHZne96wdhv-16" vertex="1">
          <mxGeometry x="328" y="81.85" width="40" height="30" as="geometry" />
        </mxCell>
        <mxCell id="FCF7Dez4cNrbEFGlSfUY-24" value="" style="endArrow=none;html=1;rounded=0;strokeColor=#525252;entryX=0.044;entryY=0.003;entryDx=0;entryDy=0;entryPerimeter=0;" parent="MLl364OC8HHZne96wdhv-16" edge="1">
          <mxGeometry width="50" height="50" relative="1" as="geometry">
            <mxPoint x="782.5" y="340" as="sourcePoint" />
            <mxPoint x="782.5" y="-2" as="targetPoint" />
          </mxGeometry>
        </mxCell>
        <mxCell id="FCF7Dez4cNrbEFGlSfUY-201" value="Pending" style="rounded=1;whiteSpace=wrap;html=1;fillColor=#fff2cc;strokeColor=#d6b656;" parent="MLl364OC8HHZne96wdhv-16" vertex="1">
          <mxGeometry x="580" y="146.85" width="80" height="20" as="geometry" />
        </mxCell>
        <mxCell id="FCF7Dez4cNrbEFGlSfUY-202" value="Pending" style="rounded=1;whiteSpace=wrap;html=1;fillColor=#fff2cc;strokeColor=#d6b656;" parent="MLl364OC8HHZne96wdhv-16" vertex="1">
          <mxGeometry x="580" y="176.85" width="80" height="20" as="geometry" />
        </mxCell>
        <mxCell id="FCF7Dez4cNrbEFGlSfUY-203" value="56" style="text;html=1;align=center;verticalAlign=middle;resizable=0;points=[];autosize=1;strokeColor=none;fillColor=none;fontColor=#33aae6;labelBorderColor=none;" parent="MLl364OC8HHZne96wdhv-16" vertex="1">
          <mxGeometry x="419" y="49.99999999999998" width="40" height="30" as="geometry" />
        </mxCell>
        <mxCell id="FCF7Dez4cNrbEFGlSfUY-204" value="86" style="text;html=1;align=center;verticalAlign=middle;resizable=0;points=[];autosize=1;strokeColor=none;fillColor=none;fontColor=#33aae6;labelBorderColor=none;" parent="MLl364OC8HHZne96wdhv-16" vertex="1">
          <mxGeometry x="419" y="169.99999999999997" width="40" height="30" as="geometry" />
        </mxCell>
        <mxCell id="FCF7Dez4cNrbEFGlSfUY-205" value="1875" style="text;html=1;align=center;verticalAlign=middle;resizable=0;points=[];autosize=1;strokeColor=none;fillColor=none;fontColor=#33aae6;" parent="MLl364OC8HHZne96wdhv-16" vertex="1">
          <mxGeometry x="414" y="138.14999999999995" width="50" height="30" as="geometry" />
        </mxCell>
        <mxCell id="FCF7Dez4cNrbEFGlSfUY-206" value="18648" style="text;html=1;align=center;verticalAlign=middle;resizable=0;points=[];autosize=1;strokeColor=none;fillColor=none;fontColor=#33aae6;" parent="MLl364OC8HHZne96wdhv-16" vertex="1">
          <mxGeometry x="409" y="109.99999999999997" width="60" height="30" as="geometry" />
        </mxCell>
        <mxCell id="FCF7Dez4cNrbEFGlSfUY-207" value="63" style="text;html=1;align=center;verticalAlign=middle;resizable=0;points=[];autosize=1;strokeColor=none;fillColor=none;fontColor=#33aae6;" parent="MLl364OC8HHZne96wdhv-16" vertex="1">
          <mxGeometry x="419" y="79.99999999999997" width="40" height="30" as="geometry" />
        </mxCell>
        <mxCell id="FCF7Dez4cNrbEFGlSfUY-208" value="58" style="text;html=1;align=center;verticalAlign=middle;resizable=0;points=[];autosize=1;strokeColor=none;fillColor=none;fontColor=#33aae6;labelBorderColor=none;" parent="MLl364OC8HHZne96wdhv-16" vertex="1">
          <mxGeometry x="510" y="49.99999999999998" width="40" height="30" as="geometry" />
        </mxCell>
        <mxCell id="FCF7Dez4cNrbEFGlSfUY-209" value="86" style="text;html=1;align=center;verticalAlign=middle;resizable=0;points=[];autosize=1;strokeColor=none;fillColor=none;fontColor=#33aae6;labelBorderColor=none;" parent="MLl364OC8HHZne96wdhv-16" vertex="1">
          <mxGeometry x="510" y="169.99999999999997" width="40" height="30" as="geometry" />
        </mxCell>
        <mxCell id="FCF7Dez4cNrbEFGlSfUY-210" value="1856" style="text;html=1;align=center;verticalAlign=middle;resizable=0;points=[];autosize=1;strokeColor=none;fillColor=none;fontColor=#33aae6;" parent="MLl364OC8HHZne96wdhv-16" vertex="1">
          <mxGeometry x="505" y="138.14999999999995" width="50" height="30" as="geometry" />
        </mxCell>
        <mxCell id="FCF7Dez4cNrbEFGlSfUY-211" value="20001" style="text;html=1;align=center;verticalAlign=middle;resizable=0;points=[];autosize=1;strokeColor=none;fillColor=none;fontColor=#33aae6;" parent="MLl364OC8HHZne96wdhv-16" vertex="1">
          <mxGeometry x="500" y="109.99999999999997" width="60" height="30" as="geometry" />
        </mxCell>
        <mxCell id="FCF7Dez4cNrbEFGlSfUY-212" value="102" style="text;html=1;align=center;verticalAlign=middle;resizable=0;points=[];autosize=1;strokeColor=none;fillColor=none;fontColor=#33aae6;" parent="MLl364OC8HHZne96wdhv-16" vertex="1">
          <mxGeometry x="510" y="79.99999999999997" width="40" height="30" as="geometry" />
        </mxCell>
        <mxCell id="FCF7Dez4cNrbEFGlSfUY-216" value="Submit" style="rounded=1;whiteSpace=wrap;html=1;" parent="MLl364OC8HHZne96wdhv-16" vertex="1">
          <mxGeometry x="775" y="340" width="85" height="20" as="geometry" />
        </mxCell>
        <mxCell id="FCF7Dez4cNrbEFGlSfUY-217" value="Reset" style="rounded=1;whiteSpace=wrap;html=1;" parent="MLl364OC8HHZne96wdhv-16" vertex="1">
          <mxGeometry x="680" y="340" width="85" height="20" as="geometry" />
        </mxCell>
        <mxCell id="FCF7Dez4cNrbEFGlSfUY-2" value="Quantity" style="text;html=1;align=center;verticalAlign=middle;resizable=0;points=[];autosize=1;strokeColor=none;fillColor=none;" parent="MLl364OC8HHZne96wdhv-16" vertex="1">
          <mxGeometry x="230" y="10" width="70" height="30" as="geometry" />
        </mxCell>
        <mxCell id="FCF7Dez4cNrbEFGlSfUY-276" value="Cancel" style="rounded=1;whiteSpace=wrap;html=1;" parent="MLl364OC8HHZne96wdhv-16" vertex="1">
          <mxGeometry x="10" y="340" width="85" height="20" as="geometry" />
        </mxCell>
        <mxCell id="d1beb6_P6ShJDcWqYC7g-1" value="Available in Stock" style="text;html=1;align=center;verticalAlign=middle;resizable=0;points=[];autosize=1;strokeColor=none;fillColor=none;" vertex="1" parent="MLl364OC8HHZne96wdhv-16">
          <mxGeometry x="670" y="10" width="120" height="30" as="geometry" />
        </mxCell>
        <mxCell id="MLl364OC8HHZne96wdhv-78" value="" style="endArrow=none;html=1;rounded=0;exitX=-0.003;exitY=0.105;exitDx=0;exitDy=0;exitPerimeter=0;entryX=1.001;entryY=0.105;entryDx=0;entryDy=0;entryPerimeter=0;" parent="MLl364OC8HHZne96wdhv-1" source="MLl364OC8HHZne96wdhv-16" target="MLl364OC8HHZne96wdhv-16" edge="1">
          <mxGeometry width="50" height="50" relative="1" as="geometry">
            <mxPoint x="340" y="200" as="sourcePoint" />
            <mxPoint x="390" y="150" as="targetPoint" />
            <Array as="points">
              <mxPoint x="190" y="169" />
            </Array>
          </mxGeometry>
        </mxCell>
        <mxCell id="MLl364OC8HHZne96wdhv-79" value="" style="endArrow=none;html=1;rounded=0;strokeColor=#525252;entryX=0.044;entryY=0.003;entryDx=0;entryDy=0;entryPerimeter=0;" parent="MLl364OC8HHZne96wdhv-1" target="MLl364OC8HHZne96wdhv-16" edge="1">
          <mxGeometry width="50" height="50" relative="1" as="geometry">
            <mxPoint x="108" y="470" as="sourcePoint" />
            <mxPoint x="100" y="130" as="targetPoint" />
          </mxGeometry>
        </mxCell>
        <mxCell id="MLl364OC8HHZne96wdhv-94" value="Not Available" style="shape=trapezoid;perimeter=trapezoidPerimeter;whiteSpace=wrap;html=1;fixedSize=1;" parent="MLl364OC8HHZne96wdhv-1" vertex="1">
          <mxGeometry x="190" y="70" width="120" height="20" as="geometry" />
        </mxCell>
        <mxCell id="MLl364OC8HHZne96wdhv-93" value="" style="endArrow=none;html=1;rounded=0;entryX=0;entryY=1;entryDx=0;entryDy=0;" parent="MLl364OC8HHZne96wdhv-1" target="MLl364OC8HHZne96wdhv-94" edge="1">
          <mxGeometry width="50" height="50" relative="1" as="geometry">
            <mxPoint x="940" y="90" as="sourcePoint" />
            <mxPoint x="440" y="190" as="targetPoint" />
          </mxGeometry>
        </mxCell>
        <mxCell id="MLl364OC8HHZne96wdhv-102" value="Available" style="text;html=1;align=center;verticalAlign=middle;whiteSpace=wrap;rounded=0;" parent="MLl364OC8HHZne96wdhv-1" vertex="1">
          <mxGeometry x="100" y="65" width="60" height="30" as="geometry" />
        </mxCell>
        <mxCell id="FCF7Dez4cNrbEFGlSfUY-213" value="&lt;i&gt;&lt;font style=&quot;font-size: 11px;&quot;&gt;Last updated on : 10/02/2024&lt;/font&gt;&lt;/i&gt;" style="text;html=1;align=center;verticalAlign=middle;whiteSpace=wrap;rounded=0;fontColor=#484747;" parent="MLl364OC8HHZne96wdhv-1" vertex="1">
          <mxGeometry x="230" y="95" width="180" height="30" as="geometry" />
        </mxCell>
        <mxCell id="FCF7Dez4cNrbEFGlSfUY-214" value="" style="endArrow=none;html=1;rounded=0;exitX=-0.001;exitY=0.908;exitDx=0;exitDy=0;exitPerimeter=0;entryX=1;entryY=0.908;entryDx=0;entryDy=0;entryPerimeter=0;" parent="MLl364OC8HHZne96wdhv-1" source="MLl364OC8HHZne96wdhv-16" target="MLl364OC8HHZne96wdhv-16" edge="1">
          <mxGeometry width="50" height="50" relative="1" as="geometry">
            <mxPoint x="470" y="340" as="sourcePoint" />
            <mxPoint x="520" y="290" as="targetPoint" />
          </mxGeometry>
        </mxCell>
        <mxCell id="MLl364OC8HHZne96wdhv-100" value="" style="endArrow=none;html=1;rounded=0;" parent="MLl364OC8HHZne96wdhv-1" edge="1">
          <mxGeometry width="50" height="50" relative="1" as="geometry">
            <mxPoint x="90" y="69.19999999999999" as="sourcePoint" />
            <mxPoint x="170" y="69.19999999999999" as="targetPoint" />
          </mxGeometry>
        </mxCell>
        <mxCell id="MLl364OC8HHZne96wdhv-101" value="" style="endArrow=none;html=1;rounded=0;entryX=1;entryY=0.75;entryDx=0;entryDy=0;" parent="MLl364OC8HHZne96wdhv-1" target="MLl364OC8HHZne96wdhv-12" edge="1">
          <mxGeometry width="50" height="50" relative="1" as="geometry">
            <mxPoint x="90" y="70" as="sourcePoint" />
            <mxPoint x="450" y="170" as="targetPoint" />
          </mxGeometry>
        </mxCell>
        <mxCell id="MLl364OC8HHZne96wdhv-99" value="" style="endArrow=none;html=1;rounded=0;entryX=0;entryY=1;entryDx=0;entryDy=0;" parent="1" target="MLl364OC8HHZne96wdhv-94" edge="1">
          <mxGeometry width="50" height="50" relative="1" as="geometry">
            <mxPoint x="300" y="210" as="sourcePoint" />
            <mxPoint x="580" y="310" as="targetPoint" />
          </mxGeometry>
        </mxCell>
      </root>
    </mxGraphModel>
  </diagram>
</mxfile>
